<svg width="78" height="28" viewBox="0 0 78 28" xmlns="http://www.w3.org/2000/svg">
    <g fill="hsl(0 0% 13%)" fill-rule="nonzero">
        <path d="M5.741 21.728c1.272.288 3.116.192 4.452-1.058 2.353-2.211 2.925-5.063 3.275-8.78.35-3.782.413-6.41.445-9.038.032-.513-.286-.545-.763-.513-.604.032-2.067.097-2.767.289-.54.16-.636.384-.667 1.025.031.481-.096 3.27-.286 4.775-1.05.417-3.34.705-4.452.737.127-1.826.223-3.877.19-5.704-.031-.737-.19-.801-.985-.77-.7.033-2.862.225-2.893.834l-.096 1.41C1.004 7.595.463 15.062.018 19.004c-.223 2.147 1.685 1.73 3.084.64.254.706 1.59 1.827 2.64 2.084zm-1.399-4.583c.064-.961.19-3.205.286-4.23.032-.32.191-.449.573-.449.795-.032 2.607-.224 3.91-.577-.063 1.699-.095 3.109-.508 4.615-.382 1.474-1.463 1.859-2.385 1.923-1.24.096-1.971-.193-1.876-1.282zm11.987 7.37c-.127 1.026.318 1.186 1.272 1.443 1.05.32 1.654 0 1.813-.481.73-2.211 1.653-6.826 2.098-9.07l.382-1.89c.127-.673.413-.801 1.017-1.025 2.067-.77 3.37-1.186 4.642-1.795.859-.417 1.24-2.564.16-2.403-1.336.192-2.767.416-4.102.576-.605.096-.859 0-.764-.448.128-.545.191-1.026.255-1.442.286-1.763.477-4.455-.127-5.705C22.307.833 20.813-.16 18.873.417c-1.145.288.064.865-.19 3.364-.287 3.237-.573 6.121-.955 9.614-.445 4.134-.89 7.435-1.399 11.12zM44.835 13.395c-.128 1.378.667 1.507 1.653.45 1.145-1.219 1.908-2.66 2.448-4.84.795-3.237-.159-5.416-2.734-6.441-2.385-.962-4.801-1.122-7.218-.994-2.512.193-5.056.93-7.536 2.083-.731.353-.795.77-.54 1.25 1.05 2.083 2.353 2.628 4.547 2.051 3.465-.93 4.77-1.25 7.726-1.282 1.463 0 1.844.385 1.94 1.955.095 1.763-.127 4.006-.286 5.768zm-16.693 4.263c-1.368.256-1.145 1.153.095 3.236.413.705 1.494.449 2.13.353 2.321-.417 4.992-.801 7.695-1.186l-.382 6.345c-.031.77.54.77 1.4.834 1.017.032 1.557-.257 1.685-.673.54-1.795.763-2.949 1.526-7.019a225.83 225.83 0 0 1 9.793-.929c.382-.032.859-.128.827-.93-.064-.897-.604-1.313-2.385-1.377-4.96-.193-17.774.544-22.384 1.346zM62.593 18.907c3.593-1.281 5.723-2.66 6.9-3.845.794-.801.254-1.282-.605-.897-1.526.673-4.578 1.346-7.853 1.634-1.972.16-2.29-.16-2.353-2.083-.064-2.372.477-7.403.7-8.524.222-1.058-.382-1.378-1.781-1.667-1.558-.32-2.067-.384-2.29.705-.318 1.474-1.335 8.108-.73 11.473.635 3.589 3.846 4.679 8.012 3.204zm9.157 6.57c0 .48.318.737 1.208.801.986.064 1.177-.897 1.368-1.538.858-2.692 1.78-6.41 2.32-9.165.923-4.68 1.781-11.986 1.05-13.909C77.25.481 75.279 0 74.198 0c-.19 0-.413.096-.381.417.095 1.346-.064 2.692-.223 4.005C72.1 17.946 71.75 21.407 71.75 25.477z"/>
    </g>
</svg>
